<svg viewBox="-40 0 512 512" xmlns="http://www.w3.org/2000/svg"><path d="m47.59375 223.4375h160.3125c4.148438 0 7.515625-3.363281 7.515625-7.515625v-120.234375c0-4.152344-3.367187-7.515625-7.515625-7.515625h-160.3125c-4.152344 0-7.515625 3.363281-7.515625 7.515625v120.234375c0 4.152344 3.363281 7.515625 7.515625 7.515625zm7.515625-120.234375h145.28125v105.203125h-145.28125zm0 0"/><path d="m111.71875 56.109375c-4.152344 0-7.515625 3.363281-7.515625 7.515625 0 4.148438 3.363281 7.515625 7.515625 7.515625h128.25c4.148438 0 7.515625-3.367187 7.515625-7.515625 0-4.152344-3.367187-7.515625-7.515625-7.515625zm0 0"/><path d="m304.09375 88.171875h-64.125c-4.148438 0-7.515625 3.363281-7.515625 7.515625s3.367187 7.515625 7.515625 7.515625h64.125c4.148438 0 7.515625-3.363281 7.515625-7.515625s-3.367187-7.515625-7.515625-7.515625zm0 0"/><path d="m304.09375 120.234375h-64.125c-4.148438 0-7.515625 3.363281-7.515625 7.515625s3.367187 7.515625 7.515625 7.515625h64.125c4.148438 0 7.515625-3.363281 7.515625-7.515625s-3.367187-7.515625-7.515625-7.515625zm0 0"/><path d="m304.09375 152.296875h-64.125c-4.148438 0-7.515625 3.363281-7.515625 7.515625s3.367187 7.515625 7.515625 7.515625h64.125c4.148438 0 7.515625-3.363281 7.515625-7.515625s-3.367187-7.515625-7.515625-7.515625zm0 0"/><path d="m304.09375 184.359375h-64.125c-4.148438 0-7.515625 3.363281-7.515625 7.515625s3.367187 7.515625 7.515625 7.515625h64.125c4.148438 0 7.515625-3.363281 7.515625-7.515625s-3.367187-7.515625-7.515625-7.515625zm0 0"/><path d="m304.09375 248.484375h-208.40625c-4.152344 0-7.515625 3.363281-7.515625 7.515625s3.363281 7.515625 7.515625 7.515625h208.40625c4.148438 0 7.515625-3.363281 7.515625-7.515625s-3.367187-7.515625-7.515625-7.515625zm0 0"/><path d="m47.59375 295.578125h104.203125c4.148437 0 7.515625-3.363281 7.515625-7.515625s-3.367188-7.515625-7.515625-7.515625h-104.203125c-4.152344 0-7.515625 3.363281-7.515625 7.515625s3.363281 7.515625 7.515625 7.515625zm0 0"/><path d="m304.09375 280.546875h-112.21875c-4.148438 0-7.515625 3.363281-7.515625 7.515625s3.367187 7.515625 7.515625 7.515625h112.21875c4.148438 0 7.515625-3.363281 7.515625-7.515625s-3.367187-7.515625-7.515625-7.515625zm0 0"/><path d="m47.59375 327.640625h32.0625c4.148438 0 7.515625-3.363281 7.515625-7.515625s-3.367187-7.515625-7.515625-7.515625h-32.0625c-4.152344 0-7.515625 3.363281-7.515625 7.515625s3.363281 7.515625 7.515625 7.515625zm0 0"/><path d="m311.609375 320.125c0-4.152344-3.367187-7.515625-7.515625-7.515625h-192.375c-4.152344 0-7.515625 3.363281-7.515625 7.515625s3.363281 7.515625 7.515625 7.515625h192.375c4.148438 0 7.515625-3.363281 7.515625-7.515625zm0 0"/><path d="m47.59375 359.703125h88.171875c4.148437 0 7.515625-3.363281 7.515625-7.515625s-3.367188-7.515625-7.515625-7.515625h-88.171875c-4.152344 0-7.515625 3.363281-7.515625 7.515625s3.363281 7.515625 7.515625 7.515625zm0 0"/><path d="m271.53125 352.1875c0-4.152344-3.367188-7.515625-7.515625-7.515625h-96.1875c-4.152344 0-7.515625 3.363281-7.515625 7.515625s3.363281 7.515625 7.515625 7.515625h96.1875c4.148437 0 7.515625-3.363281 7.515625-7.515625zm0 0"/><path d="m47.59375 391.765625h192.375c4.148438 0 7.515625-3.363281 7.515625-7.515625s-3.367187-7.515625-7.515625-7.515625h-192.375c-4.152344 0-7.515625 3.363281-7.515625 7.515625s3.363281 7.515625 7.515625 7.515625zm0 0"/><path d="m351.6875 336.984375v-329.46875c0-4.152344-3.363281-7.515625-7.515625-7.515625h-72.140625c-4.148438 0-7.515625 3.363281-7.515625 7.515625 0 4.148437 3.367187 7.515625 7.515625 7.515625h64.625v321.953125c-42.359375 3.613281-76.214844 37.46875-79.828125 79.828125h-241.796875v-337.660156l56.609375.003906c4.089844 0 7.515625-3.425781 7.515625-7.515625v-56.609375h156.472656c4.148438 0 7.511719-3.367188 7.511719-7.515625 0-4.152344-3.363281-7.515625-7.511719-7.515625h-163.988281c-1.96875 0-3.925781.808594-5.3125 2.199219l-64.125 64.125c-1.394531 1.394531-2.203125 3.347656-2.203125 5.316406v352.6875c0 4.152344 3.363281 7.515625 7.515625 7.515625h249.3125c3.824219 44.835938 41.535156 80.15625 87.34375 80.15625 48.34375 0 87.671875-39.328125 87.671875-87.671875 0-45.808594-35.320312-83.519531-80.15625-87.34375zm-287.5625-272.859375h-38.46875l38.46875-38.46875zm280.046875 432.84375c-40.054687 0-72.640625-32.585938-72.640625-72.640625s32.585938-72.640625 72.640625-72.640625 72.640625 32.585938 72.640625 72.640625-32.585938 72.640625-72.640625 72.640625zm0 0"/><path d="m392.265625 400.78125h-24.546875v-24.546875c0-4.152344-3.363281-7.515625-7.515625-7.515625h-32.0625c-4.148437 0-7.515625 3.363281-7.515625 7.515625v24.546875h-24.546875c-4.148437 0-7.515625 3.363281-7.515625 7.515625v32.0625c0 4.152344 3.367188 7.515625 7.515625 7.515625h24.546875v24.546875c0 4.152344 3.367188 7.515625 7.515625 7.515625h32.0625c4.152344 0 7.515625-3.363281 7.515625-7.515625v-24.546875h24.546875c4.152344 0 7.515625-3.363281 7.515625-7.515625v-32.0625c0-4.152344-3.363281-7.515625-7.515625-7.515625zm-7.515625 32.0625h-24.546875c-4.148437 0-7.515625 3.363281-7.515625 7.515625v24.546875h-17.03125v-24.546875c0-4.152344-3.367188-7.515625-7.515625-7.515625h-24.546875v-17.03125h24.546875c4.148437 0 7.515625-3.363281 7.515625-7.515625v-24.546875h17.03125v24.546875c0 4.152344 3.367188 7.515625 7.515625 7.515625h24.546875zm0 0"/></svg>